<svg xmlns="http://www.w3.org/2000/svg" version="1.1" xmlns:xlink="http://www.w3.org/1999/xlink" width="512" height="512" x="0" y="0" viewBox="0 0 511.997 511.997" style="enable-background:new 0 0 512 512" xml:space="preserve" class=""><g><path d="M510.646 261.469C468.003 185.134 397.9 138.456 315.733 129.806c-41.195-52.03-170.456-65.211-176.035-65.754-3.635-.375-7.292 1.208-9.521 4.167a10.632 10.632 0 0 0-1.458 10.281c12.673 32.896 25.656 70.313 29.092 85.621-23.473 10.741-43.99 22.163-57.217 31.681-28.688-45.896-87.25-46.469-89.927-46.469A10.66 10.66 0 0 0 0 160c0 61.802 21.542 92.823 35.948 106.667C21.542 280.51 0 311.531 0 373.333A10.66 10.66 0 0 0 10.667 384c2.677 0 61.24-.573 89.927-46.469 17.573 12.646 47.957 28.637 81.159 41.931-7.337 11.867-11.086 30.742-11.086 57.871A10.66 10.66 0 0 0 181.334 448c3.172 0 75.708-.629 111.832-43.003 91.87-1.775 170.978-49.891 217.48-133.133a10.67 10.67 0 0 0 0-10.395zM154.906 87.417c35.841 5.188 94.682 17.952 127.934 40.799-30.66 1.198-69.78 12.79-105.243 27.336-4.722-18.75-15.199-48.043-22.691-68.135zm37.344 338.635c1.421-29.671 8.267-37.254 10.186-38.806 20.786 7.296 41.846 13.094 60.969 16.004-23.139 16.281-54.682 21.348-71.155 22.802zm8.948-39.198.004-.029c.029.01.059.018.087.029-.06-.008-.027.009-.091 0zM288 384c-62.333 0-164.25-51.177-183.125-70.49a10.647 10.647 0 0 0-7.625-3.208c-.646 0-1.302.063-1.948.177-3.49.646-6.438 3-7.844 6.26-14.396 33.385-48.25 42.5-65.844 44.99 3.333-66.844 34.969-84.708 36.594-85.573 3.51-1.802 5.677-5.438 5.729-9.385.052-3.99-2.188-7.708-5.719-9.583-1.427-.76-33.25-18.5-36.604-85.521 17.583 2.573 51.562 11.823 65.844 44.927a10.667 10.667 0 0 0 7.844 6.26c3.521.656 7.094-.49 9.573-3.031 18.875-19.313 120.792-70.49 183.125-70.49 84.219 0 157.167 42.677 201.042 117.333C445.167 341.323 372.219 384 288 384z" fill="#000000" opacity="1" data-original="#000000" class=""></path><path d="M320 266.666c0-49.083 19.365-79.146 19.563-79.448 3.229-4.917 1.875-11.521-3.021-14.771-4.896-3.229-11.5-1.906-14.75 2.969-.948 1.417-23.125 35.333-23.125 91.25s22.177 89.833 23.125 91.25a10.651 10.651 0 0 0 8.885 4.75c2.031 0 4.083-.583 5.906-1.792a10.66 10.66 0 0 0 2.958-14.792c-.197-.29-19.541-29.884-19.541-79.416zM293.875 172.448c-4.906-3.229-11.49-1.906-14.75 2.969-.948 1.416-23.125 35.333-23.125 91.249 0 29.865 6.437 53.333 11.844 67.76 1.604 4.281 5.667 6.927 9.99 6.927 1.24 0 2.51-.219 3.74-.677 5.521-2.063 8.313-8.208 6.25-13.729-4.781-12.781-10.49-33.615-10.49-60.281 0-49.083 19.365-79.146 19.563-79.448 3.228-4.916 1.874-11.52-3.022-14.77z" fill="#000000" opacity="1" data-original="#000000" class=""></path><circle cx="383.999" cy="234.665" r="21.333" fill="#000000" opacity="1" data-original="#000000" class=""></circle></g></svg>