<?xml version="1.0" encoding="UTF-8" standalone="no"?>
<svg
   xmlns:dc="http://purl.org/dc/elements/1.1/"
   xmlns:cc="http://creativecommons.org/ns#"
   xmlns:rdf="http://www.w3.org/1999/02/22-rdf-syntax-ns#"
   xmlns:svg="http://www.w3.org/2000/svg"
   xmlns="http://www.w3.org/2000/svg"
   xmlns:sodipodi="http://sodipodi.sourceforge.net/DTD/sodipodi-0.dtd"
   xmlns:inkscape="http://www.inkscape.org/namespaces/inkscape"
   version="1.2"
   viewBox="0 0 123.64396 86.900002"
   width="123.64396"
   height="86.900002"
   id="svg1469"
   sodipodi:docname="TotH.svg"
   inkscape:version="1.0.2-2 (e86c870879, 2021-01-15)">
  <metadata
     id="metadata1475">
    <rdf:RDF>
      <cc:Work
         rdf:about="">
        <dc:format>image/svg+xml</dc:format>
        <dc:type
           rdf:resource="http://purl.org/dc/dcmitype/StillImage" />
        <dc:title>MI-TotH-icon</dc:title>
      </cc:Work>
    </rdf:RDF>
  </metadata>
  <defs
     id="defs1473" />
  <sodipodi:namedview
     pagecolor="#ffffff"
     bordercolor="#666666"
     borderopacity="1"
     objecttolerance="10"
     gridtolerance="10"
     guidetolerance="10"
     inkscape:pageopacity="0"
     inkscape:pageshadow="2"
     inkscape:window-width="2560"
     inkscape:window-height="1377"
     id="namedview1471"
     showgrid="false"
     fit-margin-top="0"
     fit-margin-left="0"
     fit-margin-right="0"
     fit-margin-bottom="0"
     inkscape:zoom="4.168"
     inkscape:cx="128.23951"
     inkscape:cy="36.232095"
     inkscape:window-x="-8"
     inkscape:window-y="-8"
     inkscape:window-maximized="1"
     inkscape:current-layer="svg1469" />
  <title
     id="title1162">MI-TotH-icon</title>
  <style
     id="style1164">
		tspan { white-space:pre } 
		.s0 { fill: #8a79fc } 
		.s1 { fill: #6366ee } 
		.s2 { fill: #d4d4eb } 
		.s3 { fill: #bd1818 } 
		.s4 { fill: #e52320 } 
		.s5 { fill: #db9e12 } 
		.s6 { fill: #dc9f12 } 
		.s7 { fill: #f3de61 } 
		.s8 { fill: #f4df61 } 
		.s9 { fill: #ffffff } 
		.s10 { fill: #000000 } 
		.s11 { fill: #191430 } 
		.t12 { font-size: 45px;fill: #d4d4eb;font-weight: 800;font-family: &quot;Montserrat-ExtraBold&quot;, &quot;Montserrat&quot; } 
	</style>
  <g
     id="g1172"
     transform="matrix(0.24813157,0,0,1,-0.32257104,-94.5)">
    <g
       id="&lt;Group&gt;">
      <path
         id="&lt;Path&gt;"
         class="s0"
         d="M 499.6,114.3 441.5,181 H 59.9 L 1.3,114.4 57.4,111 42.5,94.6 77,100.7 h 61.9 l 11,15.1 h 198.8 l 11.4,-15.1 h 64.1 l 34.2,-6.2 -14.8,16.4 z" />
    </g>
    <g
       id="g1170">
      <path
         id="path1168"
         class="s1"
         d="M 499.6,114.3 441.5,181 336.3,181.4 H 163 L 59.9,181 1.3,114.4 l 70.8,42.7 354.8,-0.6 z" />
    </g>
  </g>
  <path
     id="path1265"
     class="s9"
     d="m 27.3,71.7 c -0.7,0.1 -0.7,-0.4 -0.7,-1 0,-7.1 -0.2,-25 -0.2,-32 0,-0.5 -0.3,-0.8 -0.7,-0.8 -3.1,0.1 -4.3,0.3 -5.8,0.8 -0.4,0.1 -0.4,-0.1 -0.2,-0.8 l 1.3,-4 c 0.2,-0.6 0.7,-0.6 1.6,-0.7 1.7,-0.2 3,-0.2 7.1,-0.1 5,0.1 8.4,0.4 10.4,-0.1 0.3,-0.1 0.3,0.2 0.1,0.8 l -1.2,4 c -0.3,0.6 -0.8,0.6 -1.6,0.6 -1.3,0 -2.5,-0.2 -3.5,-0.5 -0.4,-0.1 -0.5,0.3 -0.5,0.8 0,6.5 0.1,25.5 0.2,32 -0.1,0.6 0,1.1 -0.8,1.1 -1.4,-0.1 -4.1,-0.2 -5.5,-0.1 z"
     style="opacity:0.5" />
  <path
     id="path1277"
     fill-rule="evenodd"
     class="s9"
     d="M 43.6,59.3 V 45.9 c 0,-1.5 4.9,-5.2 6.1,-5.2 1.3,0 6.4,3.4 6.4,4.8 v 13.4 c 0,1.5 -4.9,5.2 -6.1,5.2 -1.3,0 -6.4,-3.4 -6.4,-4.8 z M 52,60.6 V 46.9 c 0,-0.8 -3.4,-3.1 -3.9,-3.1 -0.3,0 -0.4,0.2 -0.4,0.5 V 58 c 0,0.8 3.3,3.1 3.9,3.1 0.3,0 0.4,-0.2 0.4,-0.5 z"
     style="opacity:0.5" />
  <path
     id="path1281"
     class="s9"
     d="m 64.2,63.6 c -0.5,0.1 -0.5,-0.2 -0.5,-0.6 0,-4.1 -0.1,-14.5 -0.1,-18.6 0,-0.3 -0.2,-0.4 -0.4,-0.4 -1.8,0 -2.5,0.1 -3.4,0.4 -0.2,0 -0.2,-0.1 -0.1,-0.5 l 0.8,-2.3 c 0.1,-0.3 0.4,-0.3 0.9,-0.4 1,-0.1 1.8,-0.1 4.1,-0.1 2.9,0.1 4.9,0.3 6.1,0 0.2,-0.1 0.2,0.1 0.1,0.5 l -0.8,2.3 c -0.1,0.3 -0.4,0.3 -0.9,0.3 -0.7,0 -1.4,-0.1 -2,-0.2 -0.3,-0.1 -0.3,0.1 -0.3,0.4 0,3.8 0,14.9 0.1,18.6 -0.1,0.4 0,0.7 -0.5,0.7 -0.8,-0.1 -2.3,-0.1 -3.1,-0.1 z"
     style="opacity:0.5" />
  <path
     id="path1287"
     class="s9"
     d="m 96.7,34.1 v 36.6 c 0,0.6 0,1.2 -0.8,1.1 -1.4,-0.1 -4,-0.1 -5.4,0 -0.8,0 -0.8,-0.5 -0.8,-1.1 V 55.3 Q 89.7,55 89.4,55 h -6.2 q -0.3,0 -0.3,0.3 v 15.4 c 0,0.6 0,1.2 -0.8,1.1 -1.4,-0.1 -4,-0.1 -5.4,0 -0.8,0 -0.8,-0.5 -0.8,-1.1 V 34.1 c 0,-0.6 0,-1.1 0.8,-1 1.4,0.1 4,0.1 5.4,-0.1 0.8,0 0.8,0.5 0.8,1.1 v 16.1 c 0,0.2 0.1,0.4 0.3,0.4 h 6.2 q 0.3,0 0.3,-0.4 V 34.1 c 0,-0.6 0,-1.1 0.8,-1 1.4,0.1 4,0.1 5.4,-0.1 0.8,0 0.8,0.5 0.8,1.1 z"
     style="opacity:0.5" />
  <path
     id="path1301"
     class="s10"
     d="m 27.3,71 c -0.7,0.1 -0.7,-0.4 -0.7,-1 0,-7.1 -0.2,-25 -0.2,-32 0,-0.5 -0.3,-0.8 -0.7,-0.8 -3.1,0.1 -4.3,0.3 -5.8,0.8 -0.4,0.1 -0.4,-0.1 -0.2,-0.8 l 1.3,-4 c 0.2,-0.6 0.7,-0.6 1.6,-0.7 1.7,-0.2 3,-0.2 7.1,-0.1 5,0.1 8.4,0.4 10.4,-0.1 0.3,-0.1 0.3,0.2 0.1,0.8 l -1.2,4 c -0.3,0.6 -0.8,0.6 -1.6,0.6 -1.3,0 -2.5,-0.2 -3.5,-0.5 -0.4,-0.1 -0.5,0.3 -0.5,0.8 0,6.5 0.1,25.5 0.2,32 -0.1,0.6 0,1.1 -0.8,1.1 C 31.4,71 28.7,70.9 27.3,71 Z" />
  <path
     id="path1313"
     fill-rule="evenodd"
     class="s10"
     d="M 43.6,58.6 V 45.2 c 0,-1.5 4.9,-5.2 6.1,-5.2 1.3,0 6.4,3.4 6.4,4.8 v 13.4 c 0,1.5 -4.9,5.2 -6.1,5.2 -1.3,0 -6.4,-3.4 -6.4,-4.8 z M 52,59.9 V 46.2 c 0,-0.8 -3.4,-3.1 -3.9,-3.1 -0.3,0 -0.4,0.2 -0.4,0.5 v 13.7 c 0,0.8 3.3,3.1 3.9,3.1 0.3,0 0.4,-0.2 0.4,-0.5 z" />
  <path
     id="path1317"
     class="s10"
     d="m 64.2,62.9 c -0.5,0.1 -0.5,-0.2 -0.5,-0.6 0,-4.1 -0.1,-14.5 -0.1,-18.6 0,-0.3 -0.2,-0.4 -0.4,-0.4 -1.8,0 -2.5,0.1 -3.4,0.4 -0.2,0 -0.2,-0.1 -0.1,-0.5 l 0.8,-2.3 c 0.1,-0.3 0.4,-0.3 0.9,-0.4 1,-0.1 1.8,-0.1 4.1,-0.1 2.9,0.1 4.9,0.3 6.1,0 0.2,-0.1 0.2,0.1 0.1,0.5 l -0.8,2.3 c -0.1,0.4 -0.4,0.4 -0.9,0.4 -0.7,0 -1.4,-0.2 -2,-0.3 -0.3,-0.1 -0.3,0.1 -0.3,0.4 0,3.8 0,14.9 0.1,18.6 -0.1,0.4 0,0.7 -0.5,0.7 -0.8,-0.1 -2.3,-0.1 -3.1,-0.1 z" />
  <path
     id="path1323"
     class="s10"
     d="M 96.7,33.4 V 70 c 0,0.6 0,1.2 -0.8,1.1 -1.4,-0.1 -4,-0.1 -5.4,0 -0.8,0 -0.8,-0.5 -0.8,-1.1 V 54.6 q 0,-0.3 -0.3,-0.3 h -6.2 q -0.3,0 -0.3,0.3 V 70 c 0,0.6 0,1.2 -0.8,1.1 -1.4,-0.1 -4,-0.1 -5.4,0 -0.8,0 -0.8,-0.5 -0.8,-1.1 V 33.4 c 0,-0.6 0,-1.1 0.8,-1 1.4,0.1 4,0.1 5.4,-0.1 0.8,0 0.8,0.5 0.8,1.1 v 16.1 c 0,0.2 0.1,0.4 0.3,0.4 h 6.2 q 0.3,0 0.3,-0.4 V 33.4 c 0,-0.6 0,-1.1 0.8,-1 1.4,0.1 4,0.1 5.4,-0.1 0.8,0 0.8,0.5 0.8,1.1 z" />
  <path
     id="path1341"
     class="s9"
     d="m 33.4,38 c 0,4.7 0,15.9 0.1,24.2 h -2.8 l -4.2,-2.5 c 0,-7.9 -0.1,-17.1 -0.1,-21.7 0,-0.5 -0.3,-0.8 -0.7,-0.8 -3.1,0.1 -4.3,0.3 -5.8,0.8 -0.4,0.1 -0.4,-0.1 -0.2,-0.8 l 1.3,-4 c 0.2,-0.6 0.7,-0.6 1.6,-0.7 1.7,-0.2 3,-0.2 7.1,-0.1 5,0.1 8.4,0.4 10.4,-0.1 0.3,-0.1 0.3,0.2 0.1,0.8 l -1.2,4 c -0.3,0.6 -0.8,0.6 -1.6,0.6 -1.3,0 -2.5,-0.2 -3.5,-0.5 -0.4,-0.1 -0.5,0.3 -0.5,0.8 z"
     style="opacity:0.1" />
  <path
     id="path1353"
     class="s9"
     d="m 46.9,61.9 h 5.9 c -1.2,0.9 -2.3,1.5 -2.8,1.5 -0.6,0 -1.8,-0.6 -3.1,-1.5 z"
     style="opacity:0.1" />
  <path
     id="path1355"
     fill-rule="evenodd"
     class="s9"
     d="M 52.8,61.9 H 46.9 C 45.2,60.8 43.6,59.4 43.6,58.6 V 45.2 c 0,-1.5 4.9,-5.2 6.1,-5.2 1.3,0 6.4,3.4 6.4,4.8 v 13.4 c 0,0.9 -1.7,2.5 -3.3,3.7 z M 52,46.2 c 0,-0.8 -3.4,-3.1 -3.9,-3.1 -0.3,0 -0.4,0.2 -0.4,0.5 v 13.7 c 0,0.8 3.3,3.1 3.9,3.1 0.3,0 0.4,-0.2 0.4,-0.5 z"
     style="opacity:0.1" />
  <path
     id="path1361"
     class="s9"
     d="m 63.7,61.9 h 4.1 q 0,0.2 0,0.4 C 67.7,62.7 67.8,63 67.3,63 66.5,62.9 65,62.9 64.2,62.9 63.7,63 63.7,62.7 63.7,62.3 q 0,-0.2 0,-0.4 z"
     style="opacity:0.1" />
  <path
     id="path1363"
     class="s9"
     d="m 67.7,43.7 c 0,3.7 0,14 0.1,18.2 h -4.1 c 0,-4.4 -0.1,-14.3 -0.1,-18.2 0,-0.3 -0.2,-0.4 -0.4,-0.4 -1.8,0 -2.5,0.1 -3.4,0.4 -0.2,0 -0.2,-0.1 -0.1,-0.5 l 0.8,-2.3 c 0.1,-0.3 0.4,-0.3 0.9,-0.4 1,-0.1 1.8,-0.1 4.1,-0.1 2.9,0.1 4.9,0.3 6.1,0 0.2,-0.1 0.2,0.1 0.1,0.5 l -0.8,2.3 c -0.1,0.4 -0.4,0.4 -0.9,0.4 -0.7,0 -1.4,-0.2 -2,-0.3 -0.3,-0.1 -0.3,0.1 -0.3,0.4 z"
     style="opacity:0.1" />
  <path
     id="path1375"
     class="s9"
     d="m 96.7,33.4 v 28.4 h -7 v -7.2 q 0,-0.3 -0.3,-0.3 h -6.2 q -0.3,0 -0.3,0.3 v 7.2 h -7 V 33.4 c 0,-0.6 0,-1.1 0.8,-1 1.4,0.1 4,0.1 5.4,-0.1 0.8,0 0.8,0.5 0.8,1.1 v 16.1 c 0,0.2 0.1,0.4 0.3,0.4 h 6.2 q 0.3,0 0.3,-0.4 V 33.4 c 0,-0.6 0,-1.1 0.8,-1 1.4,0.1 4,0.1 5.4,-0.1 0.8,0 0.8,0.5 0.8,1.1 z"
     style="opacity:0.1" />
  <g
     id="g1391"
     style="opacity:0.4"
     transform="translate(-39.3,-94.5)">
    <path
       id="path1389"
       fill-rule="evenodd"
       class="s9"
       d="m 79.8,126.8 c 0.1,0.1 0,0.4 -0.1,0.9 l -1.3,4 c -0.3,0.7 -0.9,0.7 -1.7,0.7 -1.3,0 -2.3,-0.3 -3.3,-0.5 h -0.2 q -0.1,0 -0.1,0 -0.2,0 -0.2,0.1 c -0.1,0.1 -0.1,0.3 -0.1,0.5 0,6.7 0.1,25.6 0.2,32 q 0,0.1 0,0.2 c -0.1,0.5 -0.1,1 -0.8,1 q -0.1,0 -0.1,0 c -0.9,-0.1 -2.2,-0.1 -3.5,-0.1 -0.8,0 -1.5,0 -1.9,0.1 q -0.1,0 -0.2,0 -0.5,0 -0.7,-0.4 c -0.1,-0.3 -0.1,-0.5 -0.1,-0.8 0,-3.6 0,-9.9 -0.1,-16 0,-6.2 0,-12.5 0,-16 0,-0.4 -0.2,-0.6 -0.6,-0.6 -3.1,0 -4.2,0.3 -5.8,0.7 q -0.1,0 -0.1,0 c -0.2,0 -0.2,0 -0.3,-0.1 -0.1,-0.1 0,-0.4 0.1,-0.9 l 1.3,-3.9 c 0.2,-0.6 0.7,-0.7 1.4,-0.8 h 0.3 c 0.9,-0.1 1.7,-0.2 3,-0.2 0.7,0 1.6,0 2.7,0 l 1.4,0.1 q 2.3,0 4.2,0.1 1.8,0 3.2,0 c 1.3,0 2.2,0 2.9,-0.2 q 0.1,0 0.2,0 c 0.1,0 0.2,0 0.3,0.1 z m -0.4,0 q -1.2,0.3 -3,0.3 c -1.9,0 -4.3,-0.2 -7.4,-0.2 -1.8,0 -3.1,0 -4.1,0 -1.3,0 -2.1,0 -3,0.1 -0.9,0.1 -1.4,0.1 -1.6,0.7 l -1.3,4 c -0.1,0.5 -0.2,0.8 0.1,0.8 q 0,0 0.1,0 c 1.5,-0.5 2.7,-0.7 5.8,-0.8 0.4,0 0.7,0.3 0.7,0.8 0,7 0.2,24.9 0.2,32 0,0.5 0,1 0.6,1 q 0.1,0 0.1,0 c 0.6,0 1.3,0 2,0 1.3,0 2.6,0 3.5,0.1 q 0,0 0.1,0 c 0.7,0 0.6,-0.6 0.7,-1.1 -0.1,-6.5 -0.2,-25.5 -0.2,-32 0,-0.4 0,-0.8 0.4,-0.8 q 0.1,0 0.1,0 c 1,0.3 2.2,0.5 3.5,0.5 0.8,0 1.3,0 1.6,-0.6 l 1.2,-4 c 0.2,-0.5 0.2,-0.8 0,-0.8 q -0.1,0 -0.1,0 z" />
  </g>
  <g
     id="g1415"
     style="opacity:0.4"
     transform="translate(-173.3,-94.5)">
    <path
       id="path1413"
       fill-rule="evenodd"
       class="s9"
       d="m 229.5,139.3 v 13.4 c 0,1.6 -5,5.3 -6.2,5.3 -1.3,0 -6.5,-3.4 -6.5,-4.9 v -13.4 c 0,-1.6 5,-5.3 6.2,-5.3 1.3,0 6.5,3.4 6.5,4.9 z m -12.6,0.4 v 13.4 c 0,1.4 5.1,4.8 6.4,4.8 1.2,0 6.1,-3.7 6.1,-5.2 v -13.4 c 0,-1.4 -5.1,-4.8 -6.4,-4.8 -1.2,0 -6.1,3.7 -6.1,5.2 z m 4.1,12.1 v -13.7 c 0,-0.3 0.1,-0.5 0.4,-0.5 0.5,0 3.9,2.3 3.9,3.1 v 13.7 c 0,0.3 -0.1,0.5 -0.4,0.5 -0.6,0 -3.9,-2.3 -3.9,-3.1 z m 4.2,2.6 v -13.7 c 0,-0.7 -3.3,-3 -3.8,-3 -0.2,0 -0.3,0.3 -0.3,0.4 v 13.7 c 0,0.7 3.3,3 3.8,3 0.3,0 0.3,-0.3 0.3,-0.4 z" />
  </g>
  <g
     id="g1423"
     style="opacity:0.4"
     transform="translate(-189.3,-94.5)">
    <path
       id="path1421"
       fill-rule="evenodd"
       class="s9"
       d="m 261.1,134.8 c 0.1,0.1 0.1,0.3 0,0.6 l -0.7,2.3 c -0.2,0.5 -0.6,0.5 -1.1,0.5 -0.7,0 -1.4,-0.2 -1.9,-0.3 h -0.1 q -0.1,0 -0.1,0 0,0 -0.1,0 c 0,0.1 0,0.2 0,0.3 0,3.9 0.1,14.9 0.1,18.6 v 0.2 c 0,0.2 0,0.6 -0.5,0.6 q 0,0 -0.1,0 c -0.5,0 -1.3,-0.1 -2,-0.1 q -0.7,0 -1.1,0.1 -0.1,0 -0.1,0 -0.4,0 -0.5,-0.3 c 0,-0.1 0,-0.3 0,-0.5 0,-2 -0.1,-5.7 -0.1,-9.3 0,-3.6 0,-7.3 0,-9.3 q 0,-0.3 -0.3,-0.3 c -1.8,0 -2.5,0.2 -3.3,0.4 q -0.1,0 -0.2,0 c -0.1,0 -0.1,0 -0.2,-0.1 0,-0.1 0,-0.2 0.1,-0.5 l 0.7,-2.3 c 0.1,-0.4 0.5,-0.5 0.9,-0.5 h 0.2 c 0.5,-0.1 1,-0.1 1.7,-0.1 q 0.7,0 1.6,0 h 0.8 q 1.4,0 2.5,0.1 1,0 1.8,0 c 0.8,0 1.3,0 1.7,-0.1 q 0.1,-0.1 0.2,-0.1 c 0.1,0 0.1,0.1 0.1,0.1 z m -0.2,0.1 q -0.7,0.1 -1.8,0.1 c -1.1,0 -2.5,0 -4.3,-0.1 -1,0 -1.8,0 -2.4,0 -0.7,0 -1.2,0 -1.7,0.1 -0.5,0.1 -0.8,0.1 -0.9,0.4 l -0.8,2.3 c -0.1,0.4 -0.1,0.5 0,0.5 q 0.1,0 0.1,0 c 0.9,-0.3 1.6,-0.4 3.4,-0.4 0.2,0 0.4,0.1 0.4,0.4 0,4.1 0.1,14.5 0.1,18.6 0,0.4 0,0.6 0.4,0.6 q 0,0 0.1,0 c 0.3,0 0.7,0 1.1,0 0.7,0 1.5,0 2,0.1 q 0.1,0 0.1,0 c 0.4,0 0.3,-0.3 0.4,-0.7 -0.1,-3.7 -0.1,-14.8 -0.1,-18.6 0,-0.2 0,-0.5 0.2,-0.5 q 0.1,0 0.1,0.1 c 0.6,0.1 1.3,0.3 2,0.3 0.5,0 0.8,0 0.9,-0.4 l 0.8,-2.3 c 0.1,-0.4 0.1,-0.5 0,-0.5 q -0.1,0 -0.1,0 z" />
  </g>
  <g
     id="g1435"
     style="opacity:0.4"
     transform="translate(-227.3,-94.5)">
    <path
       id="path1433"
       fill-rule="evenodd"
       class="s9"
       d="m 324.1,127.9 v 36.6 c 0,0.6 0,1.3 -0.8,1.3 q 0,0 -0.1,0 c -0.9,-0.1 -2.2,-0.2 -3.4,-0.2 -0.8,0 -1.5,0.1 -2,0.1 q 0,0 -0.1,0 -0.5,0 -0.7,-0.4 c -0.1,-0.2 -0.1,-0.5 -0.1,-0.8 v -15.4 c 0,-0.1 0,-0.2 -0.2,-0.2 h -6.2 c -0.2,0 -0.2,0.1 -0.2,0.2 v 15.4 c 0,0.6 0,1.3 -0.8,1.3 q -0.1,0 -0.1,0 c -0.9,-0.1 -2.2,-0.2 -3.4,-0.2 -0.8,0 -1.5,0.1 -2,0.1 q -0.1,0 -0.1,0 -0.6,0 -0.7,-0.4 c -0.1,-0.2 -0.1,-0.5 -0.1,-0.8 v -36.6 c 0,-0.5 0,-1.1 0.8,-1.1 q 0,0 0.1,0 c 0.5,0 1.2,0 2,0 1.2,0 2.5,0 3.4,-0.1 q 0,0 0.1,0 0.5,0 0.7,0.4 c 0.1,0.3 0.1,0.5 0.1,0.8 V 144 c 0,0.1 0,0.2 0.2,0.2 h 6.2 c 0.2,0 0.2,0 0.2,-0.2 v -16.1 c 0,-0.5 0,-1.1 0.8,-1.1 q 0.1,0 0.1,0 c 0.5,0 1.2,0 2,0 1.2,0 2.5,0 3.4,-0.1 q 0.1,0 0.1,0 c 0.8,0 0.8,0.7 0.8,1.2 z m -0.9,-1.1 c -0.8,0.1 -2.2,0.2 -3.4,0.2 -0.8,0 -1.5,-0.1 -2,-0.1 q 0,0 -0.1,0 c -0.7,0 -0.7,0.5 -0.7,1 V 144 q 0,0.4 -0.3,0.4 h -6.2 c -0.2,0 -0.3,-0.2 -0.3,-0.4 v -16.1 c 0,-0.5 0,-1.1 -0.7,-1.1 q -0.1,0 -0.1,0 c -0.9,0.1 -2.2,0.2 -3.4,0.2 -0.8,0 -1.5,-0.1 -2,-0.1 q -0.1,0 -0.1,0 c -0.7,0 -0.7,0.5 -0.7,1 v 36.6 c 0,0.6 0,1.1 0.7,1.1 q 0,0 0.1,0 c 0.5,-0.1 1.2,-0.1 2,-0.1 1.2,0 2.5,0.1 3.4,0.1 q 0,0 0.1,0 c 0.7,0 0.7,-0.5 0.7,-1.1 v -15.4 q 0,-0.3 0.3,-0.3 h 6.2 q 0.3,0 0.3,0.3 v 15.4 c 0,0.6 0,1.1 0.7,1.1 q 0.1,0 0.1,0 c 0.5,-0.1 1.2,-0.1 2,-0.1 1.2,0 2.6,0.1 3.4,0.1 q 0.1,0 0.1,0 c 0.7,0 0.7,-0.5 0.7,-1.1 v -36.6 c 0,-0.5 0,-1.1 -0.7,-1.1 q 0,0 -0.1,0 z" />
  </g>
</svg>
